<?xml version="1.0" encoding="utf-8"?>
<svg version="1.1" id="Layer_1" xmlns="http://www.w3.org/2000/svg" xmlns:xlink="http://www.w3.org/1999/xlink" x="0px" y="0px"
	 viewBox="0 0 26 26" style="enable-background:new 0 0 26 26;" xml:space="preserve">
<style type="text/css">
	.st0{fill:none;stroke:#F6F8F9;stroke-width:0.75;stroke-miterlimit:10;}
	.st1{opacity:0.7;}
</style>
<g>
	<g>
		<path class="st0" d="M15.1,23.4c0.6,0.1,1.1,0.2,1.8,0.2l0.7-2.3c0.5,0,0.9-0.1,1.4-0.3l1.8,1.7c0.5-0.3,1-0.6,1.5-0.9l-0.9-2.2
			c0.4-0.4,0.7-0.8,0.9-1.2l2.4,0.1c0.2-0.5,0.4-1,0.5-1.6L23,15.7c0-0.1,0-0.3,0-0.4c0-0.4,0-0.8-0.1-1.1l2-1.4
			c-0.2-0.5-0.4-0.9-0.6-1.4l-2.4,0.4c-0.3-0.4-0.7-0.8-1.1-1.1l0.6-2.3c-0.5-0.3-1-0.5-1.5-0.7l-1.6,1.9c-0.4-0.1-0.8-0.1-1.2-0.1
			c-0.1,0-0.1,0-0.2,0l-1-2.2c-0.6,0.1-1.1,0.2-1.6,0.4l0,2.5c-0.4,0.2-0.8,0.5-1.1,0.7l-2.2-1c-0.4,0.4-0.8,0.9-1.1,1.5l1.7,1.7
			c-0.2,0.4-0.3,0.9-0.4,1.3L8.7,15c0,0.1,0,0.3,0,0.4c0,0.5,0,0.9,0.1,1.3l2.4,0.4c0.1,0.4,0.3,0.9,0.5,1.3l-1.4,2
			c0.3,0.4,0.7,0.8,1.1,1.2l2-1.3c0.4,0.3,0.9,0.6,1.4,0.7L15.1,23.4z"/>
		<circle class="st0" cx="17" cy="15.3" r="4"/>
	</g>
	<g class="st1">
		<circle class="st0" cx="5.6" cy="7.2" r="1.6"/>
		<path class="st0" d="M7.2,11.7c0.5-0.2,0.9-0.4,1.3-0.7L8.1,9.6c0.3-0.3,0.5-0.6,0.6-0.9l1.4,0c0.2-0.5,0.2-0.9,0.2-1.5L9.1,6.7
			c0-0.3-0.1-0.7-0.3-1l0.9-1.1c-0.3-0.4-0.6-0.8-1-1.2L7.5,4.2C7.2,4,6.9,3.9,6.6,3.8L6.2,2.5c-0.2,0-0.4,0-0.6,0
			c-0.3,0-0.6,0-0.9,0.1L4.6,3.8C4.2,4,3.8,4.1,3.5,4.4L2.3,3.7C2,4.1,1.6,4.5,1.4,5l1,0.9C2.2,6.2,2.2,6.6,2.1,7L0.9,7.7
			c0.1,0.5,0.2,1,0.4,1.4l1.3-0.2c0.2,0.4,0.5,0.7,0.8,1L3,11.1c0.4,0.3,0.9,0.5,1.5,0.7l0.8-1.1c0.1,0,0.3,0,0.4,0
			c0.3,0,0.5,0,0.8-0.1L7.2,11.7z"/>
	</g>
</g>
</svg>
