<?xml version="1.0" encoding="utf-8"?>
<svg version="1.1" id="Layer_1" xmlns="http://www.w3.org/2000/svg" xmlns:xlink="http://www.w3.org/1999/xlink" x="0px" y="0px"
	 viewBox="0 0 26 26" style="enable-background:new 0 0 26 26;" xml:space="preserve">
<style type="text/css">
	.st0{fill:none;stroke:#F6F8F9;stroke-width:0.75;stroke-miterlimit:10;}
	.st1{opacity:0.7;}
	.st2{opacity:0.4;}
	.st3{fill:none;stroke:#F6F8F9;stroke-width:0.75;stroke-miterlimit:10;stroke-dasharray:5.0366;}
	.st4{fill:none;stroke:#F6F8F9;stroke-width:0.75;stroke-miterlimit:10;stroke-dasharray:5.2345;}
	.st5{fill:none;stroke:#F6F8F9;stroke-width:0.75;stroke-miterlimit:10;stroke-dasharray:6.1554;}
	.st6{fill:none;stroke:#F6F8F9;stroke-width:0.75;stroke-miterlimit:10;stroke-dasharray:8.1843;}
	.st7{fill:none;stroke:#F6F8F9;stroke-width:0.75;stroke-miterlimit:10;stroke-dasharray:6.7436;}
	.st8{fill:none;stroke:#F6F8F9;stroke-width:0.75;stroke-miterlimit:10;stroke-dasharray:6.0126;}
</style>
<circle class="st0" cx="13" cy="13" r="8"/>
<path class="st0" d="M5.9,6"/>
<path class="st0" d="M21.9,5"/>
<g class="st1">
	<path class="st0" d="M10,3.5C9.3,3.7,8.6,4,8,4.3"/>
	<path class="st0" d="M21,7c-1.4-1.9-3.6-3.3-6-3.8"/>
	<path class="st0" d="M20,20.1c1.9-1.8,3-4.3,3-7.1c0-0.3,0-0.7,0-1"/>
	<path class="st0" d="M10,22.5c0.9,0.3,2,0.5,3,0.5c1.8,0,3.5-0.5,5-1.3"/>
	<path class="st0" d="M3.5,16c0.8,2.4,2.4,4.4,4.5,5.7"/>
	<path class="st0" d="M3.5,16"/>
	<path class="st0" d="M5.9,6C4.1,7.8,3,10.3,3,13c0,0.3,0,0.7,0,1"/>
</g>
<g class="st2">
	<path class="st3" d="M24.8,15c0.1-0.7,0.2-1.3,0.2-2c0-1-0.1-2-0.4-3"/>
</g>
<g class="st2">
	<path class="st4" d="M20.9,22c1.3-1.2,2.4-2.6,3.1-4.2"/>
</g>
<g class="st2">
	<path class="st5" d="M8,23.9c1.5,0.7,3.2,1.1,5,1.1c0.3,0,0.7,0,1,0"/>
</g>
<g class="st2">
	<path class="st6" d="M1.4,10C1.1,11,1,12,1,13c0,1.8,0.4,3.5,1.1,5"/>
</g>
<g class="st2">
	<path class="st7" d="M11,1.2C8.7,1.5,6.7,2.6,5,4.1"/>
</g>
<g class="st2">
	<path class="st8" d="M21.9,5c-1.3-1.5-3-2.6-4.9-3.3"/>
</g>
<path class="st0" d="M8.5,11.3c0-0.8,0.7-1.5,1.5-1.5s1.5,0.7,1.5,1.5"/>
<path class="st0" d="M14.5,11.3c0-0.8,0.7-1.5,1.5-1.5c0.8,0,1.5,0.7,1.5,1.5"/>
<path class="st0" d="M17.6,14.5c-0.8,1.8-2.5,3-4.6,3c-2.1,0-3.8-1.2-4.6-3"/>
</svg>
