<?xml version="1.0" encoding="utf-8"?>
<svg version="1.1" id="Layer_1" xmlns="http://www.w3.org/2000/svg" xmlns:xlink="http://www.w3.org/1999/xlink" x="0px" y="0px"
	 viewBox="0 0 26 26" style="enable-background:new 0 0 26 26;" xml:space="preserve">
<style type="text/css">
	.st0{fill:none;stroke:#F6F8F9;stroke-width:0.75;stroke-miterlimit:10;}
	.st1{fill:#F6F8F9;}
	.st2{opacity:0.7;}
</style>
<rect x="8" y="4" class="st0" width="16" height="11"/>
<g>
	<polygon class="st1" points="9.9,19 12.1,15 14.4,15 	"/>
</g>
<line class="st0" x1="3" y1="4" x2="6" y2="4"/>
<line class="st0" x1="2" y1="5.5" x2="6" y2="5.5"/>
<line class="st0" x1="1" y1="7" x2="6" y2="7"/>
<circle class="st1" cx="12" cy="9.5" r="1"/>
<circle class="st1" cx="16" cy="9.5" r="1"/>
<circle class="st1" cx="20" cy="9.5" r="1"/>
<g class="st2">
	<polyline class="st0" points="18,15 18,20 2,20 2,9 8,9 	"/>
	<g>
		<polygon class="st1" points="11.5,19.9 14.1,19.9 16.4,24 		"/>
	</g>
	<line class="st0" x1="20" y1="17" x2="25" y2="17"/>
	<line class="st0" x1="20" y1="18.5" x2="24" y2="18.5"/>
	<line class="st0" x1="20" y1="20" x2="23" y2="20"/>
	<path class="st1" d="M6,13.5c-0.6,0-1,0.4-1,1c0,0.6,0.4,1,1,1V13.5z"/>
</g>
</svg>
