<?xml version="1.0" encoding="utf-8"?>
<svg version="1.1" id="Layer_1" xmlns="http://www.w3.org/2000/svg" xmlns:xlink="http://www.w3.org/1999/xlink" x="0px" y="0px"
	 viewBox="0 0 26 26" style="enable-background:new 0 0 26 26;" xml:space="preserve">
<style type="text/css">
	.st0{opacity:0.6;fill:none;stroke:#F6F8F9;stroke-width:0.75;stroke-miterlimit:10;enable-background:new    ;}
	.st1{fill:none;stroke:#F6F8F9;stroke-width:0.75;stroke-miterlimit:10;}
	.st2{fill:#F6F8F9;}
	.st3{opacity:0.6;fill:none;stroke:#F6F8F9;stroke-width:0.75;stroke-linecap:round;stroke-miterlimit:10;enable-background:new    ;}
	.st4{fill:none;stroke:#F6F8F9;stroke-width:0.75;stroke-linecap:round;stroke-miterlimit:10;}
</style>
<g>
	<path class="st0" d="M6,3c0,1.1-0.9,2-2,2S2,4.1,2,3s0.9-2,2-2"/>
	<path class="st1" d="M4,1c1.1,0,2,0.9,2,2"/>
	<path class="st1" d="M20,3c0-1.1-0.9-2-2-2"/>
	<path class="st1" d="M6,23c0,1.1,0.9,2,2,2s2-0.9,2-2h14c0,1.1-0.9,2-2,2"/>
	<line class="st1" x1="6" y1="23" x2="6" y2="3"/>
	<path class="st1" d="M18,1H4C3.4,1,2.9,1.3,2.9,1.3"/>
	<line class="st1" x1="20" y1="3" x2="20" y2="23"/>
	<line class="st1" x1="8" y1="25" x2="22" y2="25"/>
	<rect x="10" y="5" class="st1" width="6" height="4"/>
	<polygon class="st2" points="11,11 12.1,8.8 13.3,9.2 	"/>
	<line class="st3" x1="10" y1="13" x2="16" y2="13"/>
	<line class="st3" x1="10" y1="15" x2="16" y2="15"/>
	<line class="st3" x1="10" y1="17" x2="16" y2="17"/>
	<line class="st4" x1="10" y1="19" x2="16" y2="19"/>
</g>
</svg>
