<?xml version="1.0" encoding="utf-8"?>
<svg version="1.1" xmlns="http://www.w3.org/2000/svg" xmlns:xlink="http://www.w3.org/1999/xlink"
	 viewBox="0 0 240 124" xml:space="preserve">
<path class="cloud" d="M232.6,62.1h-28c-2.2,0-4-1.8-4-4c0-2.2,1.8-4,4-4h16c2.2,0,4-1.8,4-4c0-2.2-1.8-4-4-4h-33c-2.2,0-4-1.8-4-4
	c0-1.1,0.5-2.1,1.2-2.8c0.7-0.7,1.7-1.2,2.8-1.2h13c2.2,0,4-1.8,4-4c0-2.2-1.8-4-4-4h-33c2.2,0,4-1.8,4-4c0-2.2-1.8-4-4-4h-6
	c-2.2,0-4-1.8-4-4c0-2.2-1.8-4-4-4h-9c-2.2,0-4-1.8-4-4c0-2.2-1.8-4-4-4h-63c-2.2,0-4,1.8-4,4c0,2.2,1.8,4,4,4h6c2.2,0,4,1.8,4,4
	c0,2.2-1.8,4-4,4h-49c-2.2,0-4,1.8-4,4c0,2.2,1.8,4,4,4h5c2.2,0,4,1.8,4,4c0,2.2-1.8,4-4,4h-28c-2.2,0-4,1.8-4,4c0,2.2,1.8,4,4,4h45
	c1.1,0,2.1,0.5,2.8,1.2c0.7,0.7,1.2,1.7,1.2,2.8c0,1.1-0.5,2.1-1.2,2.8c-0.7,0.7-1.7,1.2-2.8,1.2h-13c-2.2,0-4,1.8-4,4
	c0,2.2,1.8,4,4,4h13c1.1,0,2.1,0.5,2.8,1.2c0.7,0.7,1.2,1.7,1.2,2.8c0,1.1-0.5,2.1-1.2,2.8c-0.7,0.7-1.7,1.2-2.8,1.2h-12
	c-2.2,0-4,1.8-4,4c0,2.2-1.8,4-4,4h-12c-2.2,0-4,1.8-4,4c0,2.2,1.8,4,4,4h24c2.2,0,4,1.8,4,4c0,2.2-1.8,4-4,4h-36c-2.2,0-4,1.8-4,4
	c0,2.2,1.8,4,4,4h36c2.2,0,4,1.8,4,4c0,2.2,1.8,4,4,4h24c2.2,0,4,1.8,4,4c0,2.2,1.8,4,4,4h64c2.2,0,4-1.8,4-4c0-2.2-1.8-4-4-4h-24
	c-2.2,0-4-1.8-4-4c0-2.2,1.8-4,4-4h44c2.2,0,4-1.8,4-4c0-2.2-1.8-4-4-4h-16c-2.2,0-4-1.8-4-4c0-2.2,1.8-4,4-4h32c2.2,0,4-1.8,4-4
	c0-2.2-1.8-4-4-4h-24c-2.2,0-4-1.8-4-4c0-2.2,1.8-4,4-4h72c2.2,0,4-1.8,4-4C236.6,63.9,234.8,62.1,232.6,62.1z"/>
<path class="strongest str" d="M56.6,36.1v60h8v-60H56.6z M60.6,68.1c-1.7,0-3-1.3-3-3c0-1.7,1.3-3,3-3s3,1.3,3,3
	C63.6,66.8,62.3,68.1,60.6,68.1z M60.6,60.1c-1.7,0-3-1.3-3-3c0-1.7,1.3-3,3-3s3,1.3,3,3C63.6,58.8,62.3,60.1,60.6,60.1z M60.6,52.1
	c-1.7,0-3-1.3-3-3c0-1.7,1.3-3,3-3s3,1.3,3,3C63.6,50.8,62.3,52.1,60.6,52.1z M60.6,44.1c-1.7,0-3-1.3-3-3c0-1.7,1.3-3,3-3
	s3,1.3,3,3C63.6,42.8,62.3,44.1,60.6,44.1z"/>
<rect x="74.6" y="36.1" class="strong str" width="110" height="60"/>
<path class="strong str" d="M56.6,30.1v6h128v-6H56.6z M91.6,35.1h-12v-4h12V35.1z M153.6,34.1h-4c-0.5,0-1-0.5-1-1s0.5-1,1-1h4
  c0.5,0,1,0.5,1,1S154.2,34.1,153.6,34.1z M168.6,35.1h-12v-4h12V35.1z"/>
<path class="stronger str" d="M64.6,36.1v60h10v-60H64.6z M72.6,76.1h-6v-6h6V76.1z M72.6,66.1h-6v-2h6V66.1z M72.6,62.1h-6v-6h6V62.1z
    M72.6,52.1h-6v-6h6V52.1z M72.6,44.1h-6v-6h6V44.1z"/>
<path class="stronger str" d="M181.2,24.1H60c-1.9,0-3.4,1.5-3.4,3.4v2.6h128v-2.6C184.6,25.6,183.1,24.1,181.2,24.1z M60.6,28.1
  c-0.5,0-1-0.5-1-1s0.5-1,1-1s1,0.5,1,1S61.2,28.1,60.6,28.1z M64.6,28.1c-0.5,0-1-0.5-1-1s0.5-1,1-1s1,0.5,1,1S65.2,28.1,64.6,28.1
  z M68.6,28.1c-0.5,0-1-0.5-1-1s0.5-1,1-1s1,0.5,1,1S69.2,28.1,68.6,28.1z"/>
<circle class="strong-fg" cx="60.6" cy="41.1" r="3"/>
<circle class="strong-fg" cx="60.6" cy="49.1" r="3"/>
<circle class="strong-fg" cx="60.6" cy="57.1" r="3"/>
<circle class="strong-fg" cx="60.6" cy="65.1" r="3"/>
<path class="strong-fg" d="M154.6,33.1c0,0.5-0.5,1-1,1h-4c-0.5,0-1-0.5-1-1s0.5-1,1-1h4C154.2,32.1,154.6,32.6,154.6,33.1z"/>
<rect class="strong-fg" x="95.6" y="40.1" width="9" height="1"/>
<rect class="strong-fg" x="111.6" y="44.1" width="6" height="1"/>
<rect class="strong-fg" x="107.6" y="48.1" width="45" height="2"/>
<rect class="strong-fg" x="117.6" y="54.1" width="2" height="1"/>
<rect class="strong-fg" x="107.6" y="58.1" width="29" height="2"/>
<rect class="strong-fg" x="119.6" y="64.1" width="25" height="1"/>
<rect class="strong-fg" x="107.6" y="68.1" width="45" height="2"/>
<rect class="strong-fg" x="128.6" y="74.1" width="6" height="1"/>
<rect class="strong-fg" x="107.6" y="78.1" width="14" height="2"/>
<rect class="strong-fg" x="115.6" y="85.1" width="6" height="1"/>
<rect class="strong-fg" x="107.6" y="91.1" width="38" height="2"/>
<circle class="bg str" cx="60.6" cy="27.1" r="1"/>
<circle class="bg str" cx="64.6" cy="27.1" r="1"/>
<circle class="bg str" cx="68.6" cy="27.1" r="1"/>
<rect x="66.6" y="38.1" class="bg str" width="6" height="6"/>
<rect x="66.6" y="46.1" class="bg str" width="6" height="6"/>
<rect x="66.6" y="56.1" class="bg str" width="6" height="6"/>
<rect x="66.6" y="70.1" class="bg str" width="6" height="6"/>
<rect x="156.6" y="31.1" class="bg str" width="12" height="4"/>
<rect x="79.6" y="31.1" class="bg str" width="12" height="4"/>
<rect x="107.8" y="40.3" class="fg" width="21.8" height="2.8"/>
<rect x="95.8" y="42.3" class="fg" width="8.8" height="0.8"/>
<rect x="95.8" y="44.3" class="fg" width="8.8" height="0.8"/>
<rect x="95.8" y="46.3" class="fg" width="8.8" height="0.8"/>
<rect x="95.8" y="48.3" class="fg" width="8.8" height="0.8"/>
<rect x="95.8" y="50.3" class="fg" width="8.8" height="0.8"/>
<rect x="107.8" y="44.3" class="fg" width="2.8" height="0.8"/>
<rect x="107.8" y="46.3" class="fg" width="19.8" height="0.8"/>
<rect x="107.8" y="54.3" class="fg" width="8.8" height="0.8"/>
<rect x="107.8" y="56.3" class="fg" width="36.8" height="0.8"/>
<rect x="107.8" y="64.3" class="fg" width="10.8" height="0.8"/>
<rect x="107.8" y="66.3" class="fg" width="13.8" height="0.8"/>
<rect x="107.8" y="74.3" class="fg" width="19.8" height="0.8"/>
<rect x="107.8" y="76.3" class="fg" width="4.8" height="0.8"/>
<rect x="107.8" y="85.3" class="fg" width="6.8" height="0.8"/>
<rect x="107.8" y="87.3" class="fg" width="31.8" height="0.8"/>
<rect x="107.8" y="89.3" class="fg" width="16.8" height="0.8"/>
</svg>
