<?xml version="1.0" encoding="UTF-8"?>
<svg enable-background="new 0 0 39.3 39.3" version="1.1" viewBox="0 0 39.3 39.3" xml:space="preserve" xmlns="http://www.w3.org/2000/svg">
<style type="text/css">
		.st0{opacity:0.6;}
	.st1{fill:none;stroke:#5886A8;stroke-linecap:round;stroke-linejoin:round;stroke-miterlimit:10;}
</style>
<line class="st1 st0" x1="5.3" x2="23.3" y1="9.1" y2="9.1"/>
<line class="st1 st0" x1="5.3" x2="16.5" y1="12.1" y2="12.1"/>
<line class="st1" x1="5.3" x2="18.8" y1="15.1" y2="15.1"/>
<polyline class="st1" points="28.8 31.9 32.3 28.3 0.8 28.3 0.8 3.6 5.3 3.6"/>
<line class="st1" x1="28.8" x2="32.3" y1="24.5" y2="28.3"/>
<line class="st1" x1="8.3" x2="12" y1="3.6" y2="3.6"/>
<line class="st1" x1="15" x2="18.8" y1="3.6" y2="3.6"/>
<polyline class="st1" points="21.8 3.6 30 3.6 30 14.8"/>
<line class="st1" x1="5.3" x2="5.3" y1="5.8" y2="1.3"/>
<line class="st1" x1="12" x2="12" y1="5.8" y2="1.3"/>
<line class="st1" x1="18.8" x2="18.8" y1="5.8" y2="1.3"/>
<line class="st1" x1="25.5" x2="25.5" y1="5.8" y2="1.3"/>
<polyline class="st1" points="22.3 31.1 22.9 32.2 21.9 33.4 23.9 35.5 25.2 34.5 27.4 35.4 27.5 36.9 30.4 37 30.7 35.4 32.9 34.5 34.1 35.4 36.2 33.5 35.2 32.1 36.2 29.9 37.6 29.8 37.7 26.9 36.1 26.7 35.2 24.4 36.1 23.2 34.3 21.2 33 22.2 30.7 21.2 30.4 19.6 27.6 19.7 27.4 21.4 25.3 22.1 23.9 21.2 22 23.3 22.9 24.6 22.2 25.8"/>
<line class="st1 st0" x1="5.3" x2="16.5" y1="18" y2="18"/>
<line class="st1 st0" x1="5.3" x2="19.1" y1="21" y2="21"/>
<line class="st1" x1="5.3" x2="15.1" y1="24" y2="24"/>
</svg>
