<?xml version="1.0" standalone="no"?>
<!DOCTYPE svg PUBLIC "-//W3C//DTD SVG 20010904//EN"
 "http://www.w3.org/TR/2001/REC-SVG-20010904/DTD/svg10.dtd">
<svg version="1.0" xmlns="http://www.w3.org/2000/svg"
 width="512.000000pt" height="512.000000pt" viewBox="0 0 512.000000 512.000000"
 preserveAspectRatio="xMidYMid meet">
<metadata>
Created by potrace 1.11, written by Peter Selinger 2001-2013
</metadata>
<g transform="translate(0.000000,512.000000) scale(0.100000,-0.100000)"
fill="#000000" stroke="none">
<path d="M0 2560 l0 -2560 2560 0 2560 0 0 2560 0 2560 -2560 0 -2560 0 0
-2560z m2775 1524 c466 -80 821 -393 930 -820 51 -200 53 -258 54 -1226 l1
-898 -365 0 -364 0 6 75 c3 41 2 75 -2 75 -4 0 -19 -8 -33 -19 -97 -68 -295
-146 -450 -175 -645 -122 -1123 104 -1264 599 -20 69 -23 103 -23 245 1 189
12 245 75 375 146 299 435 484 895 571 69 13 172 18 445 23 l355 6 3 29 c2 15
-4 61 -13 102 -45 203 -175 334 -390 395 -117 33 -324 33 -450 1 -118 -31
-253 -97 -339 -166 -38 -31 -72 -56 -75 -56 -4 0 -102 96 -219 213 l-213 213
68 58 c273 231 568 352 973 400 66 8 305 -4 395 -20z"/>
<path d="M2585 2389 c-157 -9 -265 -30 -365 -72 -59 -24 -89 -45 -142 -97 -55
-55 -69 -76 -83 -125 -48 -165 39 -328 212 -396 71 -27 255 -38 360 -19 101
17 262 73 374 131 l99 51 -2 267 -3 266 -160 1 c-88 1 -218 -2 -290 -7z"/>
</g>
</svg>
