<?xml version="1.0" standalone="no"?>
<!DOCTYPE svg PUBLIC "-//W3C//DTD SVG 20010904//EN"
 "http://www.w3.org/TR/2001/REC-SVG-20010904/DTD/svg10.dtd">
<svg version="1.0" xmlns="http://www.w3.org/2000/svg"
 width="512.000000pt" height="512.000000pt" viewBox="0 0 512.000000 512.000000"
 preserveAspectRatio="xMidYMid meet">
<metadata>
Created by potrace 1.11, written by Peter Selinger 2001-2013
</metadata>
<g transform="translate(0.000000,512.000000) scale(0.100000,-0.100000)"
fill="#000000" stroke="none">
<path d="M2490 5113 c-32 -12 -71 -46 -88 -76 -15 -28 -18 -75 -22 -390 l-5
-358 -60 -21 c-140 -47 -291 -167 -367 -293 -36 -59 -86 -190 -95 -250 -17
-105 -6 -238 27 -338 13 -40 16 -64 10 -75 -5 -9 -152 -350 -326 -757 -174
-407 -318 -741 -319 -743 -1 -2 -121 -3 -266 -4 -237 -1 -268 -3 -301 -20
-119 -59 -120 -234 -3 -301 12 -8 96 -14 221 -17 l200 -5 -80 -185 c-72 -168
-80 -191 -80 -250 0 -47 6 -76 21 -106 20 -38 77 -97 101 -105 7 -3 4 -33 -9
-86 -27 -117 -31 -159 -32 -323 -1 -150 7 -253 27 -318 3 -9 8 -33 11 -52 8
-44 12 -48 24 -19 9 24 360 828 386 884 26 58 68 153 257 585 221 505 221 505
259 588 16 35 29 65 29 67 0 3 33 80 74 172 41 93 100 227 131 298 31 72 63
144 70 160 7 17 26 58 40 93 15 34 29 62 30 62 1 0 20 -7 40 -16 66 -27 231
-27 298 1 13 6 20 -1 33 -31 9 -22 38 -91 66 -154 52 -120 60 -137 126 -285
22 -49 84 -189 137 -310 92 -210 118 -270 136 -306 4 -10 20 -46 35 -80 22
-54 127 -294 195 -446 34 -76 55 -126 109 -248 29 -66 65 -147 80 -180 15 -33
40 -88 54 -122 14 -35 37 -86 50 -115 13 -29 56 -127 96 -218 39 -91 82 -187
95 -215 12 -27 33 -74 45 -103 13 -29 25 -50 28 -48 28 29 49 405 29 541 -7
48 -28 152 -42 207 -6 24 -2 29 32 47 49 24 99 74 124 123 22 43 33 140 20
166 -6 9 -39 87 -75 172 l-65 155 207 5 c123 3 217 10 232 16 86 40 119 164
66 245 -49 74 -65 77 -374 77 -150 0 -275 1 -277 3 -1 2 -100 234 -220 514
-119 281 -227 534 -241 563 -13 29 -24 55 -24 57 0 3 -9 24 -19 48 -11 23 -48
110 -84 194 l-64 151 23 82 c24 84 33 221 19 305 -28 168 -131 336 -269 440
-52 39 -164 98 -206 108 -55 15 -53 -2 -54 379 l-1 353 -24 39 c-37 59 -136
93 -201 69z m214 -1172 c201 -99 273 -335 161 -527 -29 -49 -100 -115 -153
-140 -45 -21 -128 -41 -162 -39 -170 12 -281 88 -345 235 -15 34 -20 67 -20
140 0 84 3 102 28 153 92 187 311 267 491 178z"/>
<path d="M2057 1761 c-11 -25 -44 -100 -73 -166 l-53 -120 300 -3 c164 -1 434
-1 599 0 l299 3 -72 165 -73 165 -453 1 -453 1 -21 -46z"/>
</g>
</svg>
