<?xml version="1.0" encoding="utf-8"?>
<svg version="1.1" id="Layer_1" xmlns="http://www.w3.org/2000/svg" xmlns:xlink="http://www.w3.org/1999/xlink" x="0px" y="0px"
	 viewBox="0 0 26 26" style="enable-background:new 0 0 26 26;" xml:space="preserve">
<style type="text/css">
  .str_da6{stroke-dasharray:4.1833,2.0917;}
</style>
<polyline class="str" points="7,21 7,7 19,3 19,17"/>
<line class="str" x1="7" y1="11" x2="19" y2="7"/>
<path class="str" d="M7,19H5c-1.1,0-2,0.9-2,2s0.9,2,2,2s2-0.9,2-2"/>
<path class="str" d="M19,15h-2c-1.1,0-2,0.9-2,2s0.9,2,2,2s2-0.9,2-2"/>
<path class="op6 str" d="M8.9,22.1c1.3,0.6,2.6,0.9,4.1,0.9c5.5,0,10-4.5,10-10c0-2.1-0.7-4.1-1.8-5.7"/>
<path class="op6 str" d="M4.8,7.3C3.7,8.9,3,10.9,3,13c0,1.4,0.3,2.8,0.8,4"/>
<path class="op6 str" d="M12.6,3C11,3.1,9.5,3.5,8.1,4.2"/>
<path class="op6 str str_da6" d="M2.1,6.7c-1,1.9-1.6,4-1.6,6.3c0,2,0.5,3.8,1.3,5.5"/>
<path class="op6 str str_da6" d="M16.3,0.9c-1-0.3-2.1-0.5-3.3-0.5c-1.6,0-3.2,0.3-4.7,0.9"/>
<path class="op6 str str_da6" d="M24,19.1c1-1.8,1.6-3.8,1.6-6.1c0-3.5-1.3-6.5-3.6-8.8"/>
<path class="op6 str str_da6" d="M7.5,24.3c1.6,0.8,3.5,1.3,5.5,1.3c1.6,0,3.2-0.3,4.7-0.9"/>
</svg>
