<?xml version="1.0" encoding="UTF-8"?>
<svg version="1.1" xmlns="http://www.w3.org/2000/svg" xmlns:xlink="http://www.w3.org/1999/xlink" x="0px" y="0px"
	 viewBox="0 0 27.8 36" style="enable-background:new 0 0 78.9 17.1;" xml:space="preserve">
<path d="M 26.6,23.3 H 23 L 18.4,12.5 c 0.2,-0.6 0.4,-1.2 0.4,-1.9 C 18.8,8.3 17.2,6.3 15,5.8 V 1.2 C 15,0.5 14.5,0 13.8,0 13.1,0 12.6,0.5 12.6,1.2 v 4.7 c -2.2,0.5 -3.8,2.5 -3.8,4.8 0,0.7 0.1,1.3 0.4,1.9 L 4.6,23.3 H 1.2 c -0.7,0 -1.2,0.5 -1.2,1.2 0,0.7 0.5,1.2 1.2,1.2 h 2.4 l -1.1,2.4 c -0.4,0.8 0,1.8 0.8,2.2 -0.2,0.9 -0.3,1.9 -0.3,2.9 0,1 0.1,1.9 0.4,2.8 l 5.4,-12.2 3.7,-8.4 c 0.6,0.3 1.9,0.4 2.5,0.1 l 3.7,8.5 5.2,11.7 c 0.2,-0.8 0.3,-1.6 0.3,-2.5 0,-1.1 -0.2,-2.1 -0.4,-3 1,-0.3 1.6,-1.4 1.2,-2.3 l -1,-2.2 h 2.6 c 0.7,0 1.2,-0.5 1.2,-1.2 0,-0.7 -0.6,-1.2 -1.2,-1.2 z m -12.8,-10 c -1.4,0 -2.6,-1.2 -2.6,-2.6 0,-1.4 1.2,-2.6 2.6,-2.6 1.4,0 2.6,1.2 2.6,2.6 0,1.4 -1.1,2.6 -2.6,2.6 z" />
<polygon points="10.5,23.3 9.5,25.7 17.9,25.7 16.8,23.3 " />
</svg>
