<?xml version="1.0" encoding="UTF-8"?>
<svg enable-background="new 0 0 40 40" version="1.1" viewBox="0 0 40 40" xml:space="preserve" xmlns="http://www.w3.org/2000/svg">
<style type="text/css">
	.st0{opacity:0.6;}
	.st1{fill:#6496C4;}
	.st3{fill:none;stroke:#6496C4;stroke-miterlimit:10;}
	.st5{fill:none;stroke:#6496C4;stroke-linecap:round;stroke-miterlimit:10;}
</style>
<path class="st0 st1" d="m25 11.5c-0.2 0-0.4-0.1-0.5-0.3-0.1-0.3 0.1-0.5 0.3-0.6l0.2-0.1-1.4-0.9-2.2-1.4v1.2l1.6 1.1 1.6 1.1c0.2-0.1 0.3-0.1 0.4-0.1z"/>
<path class="st0 st1" d="m25.1 10.4l-0.2 0.1c-0.3 0.1-0.4 0.4-0.3 0.6s0.3 0.3 0.5 0.3h0.2l1.8-0.6 2.3-0.8 1.6-0.5-0.2-0.1c-0.3-0.1-0.4-0.4-0.3-0.6s0.2-0.3 0.4-0.3h-0.1l-1.8 0.6-2.3 0.8-1.6 0.5z"/>
<path class="st1" d="m31 8.5h0.1-0.1z"/>
<path class="st0 st1" d="m31.1 8.5h-0.1-0.1c-0.2 0-0.3 0.1-0.4 0.3-0.1 0.3 0.1 0.5 0.3 0.6l0.2 0.1 1.7 0.6 2.3 0.8 1.8 0.6h0.2c0.2 0 0.4-0.1 0.5-0.3 0.1-0.3-0.1-0.5-0.3-0.6l-1.8-0.6-2.4-0.9-1.9-0.6z"/>
<path class="st1" d="m34.5 35.5h5v-17h-5v17zm1-16h3v15h-3v-15z"/>
<path class="st0 st1" d="m28.5 35.5h5v-19h-5v19zm1-18h3v17h-3v-17z"/>
<path class="st1" d="M27.5,22.5h-5v2h1v-1h3v11h-3v-3.7c-0.3,0.2-0.6,0.4-1,0.5v4.3h5V22.5z"/>
<path class="st0 st1" d="m21.5 31.5h-0.5-0.5v3h-3v-3h-1v4h5v-4z"/>
<polygon class="st1" points="15.5 31.5 14.5 31.5 14.5 34.5 11.5 34.5 11.5 31.5 10.5 31.5 10.5 35.5 15.5 35.5"/>
<circle class="st1" cx="25" cy="10.8" r="1.5"/>
<circle class="st1" cx="31" cy="9.3" r="1.5"/>
<circle class="st1" cx="37" cy="11" r="1.5"/>
<path class="st0 st3" d="M5,7c0,1.1-0.9,2-2,2S1,8.1,1,7s0.9-2,2-2"/>
<path class="st3" d="m3 5c1.1 0 2 0.9 2 2"/>
<path class="st3" d="m19 7c0-1.1-0.9-2-2-2"/>
<path class="st3" d="m5 27c0 1.1 0.9 2 2 2s2-0.9 2-2h14c0 1.1-0.9 2-2 2"/>
<line class="st3" x1="5" x2="5" y1="27" y2="7"/>
<path class="st3" d="m17 5h-14c-0.6 0-1.1 0.3-1.1 0.3"/>
<line class="st3" x1="19" x2="19" y1="7" y2="27"/>
<line class="st3" x1="7" x2="21" y1="29" y2="29"/>
<rect class="st3" x="9" y="9" width="6" height="4"/>
<polygon class="st1" points="10 15 11.1 12.8 12.3 13.2"/>
<line class="st0 st5" x1="9" x2="15" y1="17" y2="17"/>
<line class="st0 st5" x1="9" x2="15" y1="19" y2="19"/>
<line class="st0 st5" x1="9" x2="15" y1="21" y2="21"/>
<line class="st5" x1="9" x2="15" y1="23" y2="23"/>
</svg>
