<?xml version="1.0" encoding="utf-8"?>
<!-- Generator: Adobe Illustrator 23.0.3, SVG Export Plug-In . SVG Version: 6.00 Build 0)  -->
<svg version="1.1" id="Layer_1" xmlns="http://www.w3.org/2000/svg" xmlns:xlink="http://www.w3.org/1999/xlink" x="0px" y="0px"
	 viewBox="0 0 40 40" style="enable-background:new 0 0 40 40;" xml:space="preserve">
<style type="text/css">
	.st0{fill:#5886A8;}
	.st1{fill:none;stroke:#5886A8;stroke-miterlimit:10;}
	.st2{opacity:0.6;fill:none;stroke:#5886A8;stroke-miterlimit:10;}
	.st3{opacity:0.6;fill:none;stroke:#5886A8;stroke-width:0.75;stroke-miterlimit:10;}
	.st4{fill:none;stroke:#5886A8;stroke-width:0.75;stroke-miterlimit:10;}
	.st5{opacity:0.6;fill:none;stroke:#5886A8;stroke-miterlimit:10;stroke-dasharray:5.3333,2.6667;}
	.st6{opacity:0.6;fill:none;stroke:#191414;stroke-width:0.75;stroke-miterlimit:10;stroke-dasharray:5.3333,2.6667;}
	.st7{fill:none;stroke:#191414;stroke-width:0.75;stroke-miterlimit:10;}
</style>
<g>
	<g>
		<g>
			<path class="st0" d="M8,1.4C5.4,1.4,3.4,3.5,3.4,6c0,2.5,2.1,4.6,4.6,4.6c2.5,0,4.6-2.1,4.6-4.6C12.6,3.5,10.5,1.4,8,1.4z
				 M10.1,8.1C10,8.2,9.8,8.2,9.7,8.2c-1.1-0.7-2.4-0.8-4-0.4c-0.2,0-0.3-0.1-0.3-0.2c0-0.2,0.1-0.3,0.2-0.3C7.3,6.8,8.8,6.9,10,7.7
				C10.1,7.8,10.2,7.9,10.1,8.1z M10.7,6.8C10.5,7,10.3,7,10.2,6.9C8.9,6.2,7,5.9,5.6,6.4c-0.2,0.1-0.4,0-0.4-0.2
				C5.1,6,5.2,5.8,5.4,5.7C7,5.2,9.1,5.4,10.5,6.3C10.7,6.4,10.8,6.6,10.7,6.8z M10.7,5.5C9.2,4.6,6.8,4.5,5.3,5
				C5.1,5,4.9,4.9,4.8,4.7C4.7,4.5,4.9,4.2,5.1,4.1c1.6-0.5,4.3-0.4,6,0.6c0.2,0.1,0.3,0.4,0.2,0.6C11.2,5.6,10.9,5.6,10.7,5.5z"/>
		</g>
	</g>
</g>
<path class="st0" d="M37.8,31.1c-0.1-0.4-0.5-0.8-0.9-0.9C36.1,30,33,30,33,30s-3.1,0-3.9,0.2c-0.4,0.1-0.8,0.5-0.9,0.9
	C28,31.9,28,33.5,28,33.5s0,1.6,0.2,2.4c0.1,0.4,0.5,0.8,0.9,0.9C29.9,37,33,37,33,37s3.1,0,3.9-0.2c0.4-0.1,0.8-0.5,0.9-0.9
	c0.2-0.8,0.2-2.4,0.2-2.4S38,31.9,37.8,31.1z M32,35v-3l2.6,1.5L32,35z"/>
<g>
	<polyline class="st1" points="14,28 14,14 26,10 26,24 	"/>
	<line class="st1" x1="14" y1="18" x2="26" y2="14"/>
	<path class="st1" d="M14,26h-2c-1.1,0-2,0.9-2,2s0.9,2,2,2s2-0.9,2-2"/>
	<path class="st1" d="M26,22h-2c-1.1,0-2,0.9-2,2s0.9,2,2,2s2-0.9,2-2"/>
</g>
<path class="st2" d="M15.9,29.1c1.3,0.6,2.6,0.9,4.1,0.9c5.5,0,10-4.5,10-10c0-2.1-0.7-4.1-1.8-5.7"/>
<path class="st2" d="M11.8,14.3C10.7,15.9,10,17.9,10,20c0,1.4,0.3,2.8,0.8,4"/>
<path class="st3" d="M19.6,10c-1.6,0.1-3.1,0.5-4.5,1.2"/>
<path class="st4" d="M14.8,30.8"/>
<path class="st5" d="M6.1,12C4.8,14.4,4,17.1,4,20c0,2.5,0.6,4.9,1.6,7"/>
<path class="st6" d="M6.1,12"/>
<path class="st5" d="M24.2,4.6C22.9,4.2,21.5,4,20,4c-2.1,0-4.1,0.4-6,1.2"/>
<path class="st7" d="M23.2,8.4"/>
<path class="st5" d="M34,27.8c1.3-2.3,2-4.9,2-7.8c0-4.4-1.7-8.3-4.6-11.2"/>
<path class="st5" d="M13,34.4c2.1,1,4.5,1.6,7,1.6c2.1,0,4.1-0.4,6-1.2"/>
</svg>
