<?xml version="1.0" encoding="utf-8"?>
<!-- Generator: Adobe Illustrator 23.0.3, SVG Export Plug-In . SVG Version: 6.00 Build 0)  -->
<svg version="1.1" id="Layer_1" xmlns="http://www.w3.org/2000/svg" xmlns:xlink="http://www.w3.org/1999/xlink" x="0px" y="0px"
	 viewBox="0 0 40 40" style="enable-background:new 0 0 40 40;" xml:space="preserve">
<style type="text/css">
	.st0{fill:none;stroke:#5886A8;stroke-miterlimit:10;}
	.st1{fill:none;stroke:#5886A8;stroke-linejoin:round;stroke-miterlimit:10;}
	.st2{fill:none;stroke:#5886A8;stroke-width:1.0377;stroke-linejoin:round;stroke-miterlimit:10;}
	.st3{opacity:0.6;fill:none;stroke:#5886A8;stroke-linejoin:round;stroke-miterlimit:10;}
	.st4{opacity:0.6;}
	.st5{fill:none;stroke:#5886A8;stroke-linejoin:round;}
	.st6{fill:none;stroke:#5886A8;stroke-linejoin:round;stroke-dasharray:2.6667,2.6667;}
	.st7{fill:none;stroke:#5886A8;stroke-linejoin:round;stroke-dasharray:2.8182,2.8182;}
	.st8{opacity:0.6;fill:#5886A8;}
	.st9{fill:#5886A8;}
</style>
<circle class="st0" cx="13" cy="9.5" r="2"/>
<path class="st0" d="M9,15.5c0,0,8,0,8,0c0-2.2-1.8-4-4-4S9,13.3,9,15.5z"/>
<line class="st1" x1="22" y1="36.5" x2="20" y2="38.5"/>
<rect x="6" y="4.5" class="st1" width="28" height="14"/>
<line class="st2" x1="17" y1="7.5" x2="31" y2="7.5"/>
<line class="st3" x1="18" y1="9.5" x2="26" y2="9.5"/>
<line class="st3" x1="18" y1="11.5" x2="26" y2="11.5"/>
<line class="st3" x1="19" y1="13.5" x2="24" y2="13.5"/>
<line class="st3" x1="20" y1="15.5" x2="22" y2="15.5"/>
<g class="st4">
	<g>
		<line class="st5" x1="14" y1="35.5" x2="12.5" y2="35.5"/>
		<line class="st6" x1="9.8" y1="35.5" x2="5.8" y2="35.5"/>
		<polyline class="st5" points="4.5,35.5 3,35.5 3,34 		"/>
		<line class="st7" x1="3" y1="31.2" x2="3" y2="4.4"/>
		<polyline class="st5" points="3,3 3,1.5 4.5,1.5 		"/>
		<line class="st7" x1="7.3" y1="1.5" x2="34.1" y2="1.5"/>
		<polyline class="st5" points="35.5,1.5 37,1.5 37,3 		"/>
		<line class="st7" x1="37" y1="5.8" x2="37" y2="32.6"/>
		<polyline class="st5" points="37,34 37,35.5 35.5,35.5 		"/>
		<line class="st6" x1="32.8" y1="35.5" x2="28.8" y2="35.5"/>
		<line class="st5" x1="27.5" y1="35.5" x2="26" y2="35.5"/>
	</g>
</g>
<polyline class="st1" points="20,20 20,28 20,28 "/>
<path class="st8" d="M28.4,30.9l-0.7-0.7l-1.1,1.1v-4.8c0-0.3-0.2-0.5-0.5-0.5h-6h-6c-0.3,0-0.5,0.2-0.5,0.5v4.8l-1.1-1.1l-0.7,0.7
	l2,2l0,0c0,0,0.1,0.1,0.1,0.1c0.1,0,0.1,0,0.2,0c0.1,0,0.3-0.1,0.4-0.1l2-2l-0.7-0.7l-1.1,1.1V27H20h5.5v4.3l-1.1-1.1l-0.7,0.7l2,2
	c0.1,0.1,0.2,0.1,0.4,0.1c0.1,0,0.1,0,0.2,0c0.1,0,0.1-0.1,0.1-0.1l0,0L28.4,30.9z"/>
<polyline class="st1" points="18,36.5 20,38.5 20,36.5 20,27 "/>
<g>
	<circle class="st1" cx="29" cy="11" r="1.5"/>
	<line class="st1" x1="28" y1="12" x2="24" y2="16"/>
	<g>
		<polygon class="st9" points="26.1,13.7 24.7,15.1 26.1,16.5 27.5,15.1 26.1,13.7 		"/>
	</g>
</g>
</svg>
