<?xml version="1.0" encoding="utf-8"?>
<svg version="1.1" id="Layer_1" xmlns="http://www.w3.org/2000/svg" xmlns:xlink="http://www.w3.org/1999/xlink" x="0px" y="0px"
	 viewBox="0 0 24 24" style="enable-background:new 0 0 24 24;" xml:space="preserve">
<path style="fill: white; opacity: 0.2" d="M14.1,0.2C7.6-1,1.4,3.3,0.2,9.9s3.2,12.8,9.7,13.9c6.5,1.2,12.8-3.2,13.9-9.7C25,7.6,20.7,1.4,14.1,0.2z M8.5,16.5
	c1.1-2.1,2.9-4.5,3.2-5.1c0.5-0.9,0-1.4-2.2-0.1l-0.3-0.9c2.6-1.9,7.1-1.7,4.9,1.7c-1.3,2.1-2.3,3.5-2.9,4.6
	c-0.9,1.6,0.7,1.2,2.3,0.1c0.1,0.3,0.2,0.5,0.3,0.8C10.3,20,6.8,19.7,8.5,16.5z M16.1,7.5c-0.8,0.4-1.7,0.3-2.2-0.4
	c-0.4-0.7-0.2-1.6,0.6-2c0.8-0.4,1.7-0.2,2.2,0.4C17.2,6.2,16.9,7.1,16.1,7.5z"/>
</svg>
