<?xml version="1.0" encoding="utf-8"?>
<!-- Generator: Adobe Illustrator 23.0.3, SVG Export Plug-In . SVG Version: 6.00 Build 0)  -->
<svg version="1.1" id="Layer_1" xmlns="http://www.w3.org/2000/svg" xmlns:xlink="http://www.w3.org/1999/xlink" x="0px" y="0px"
	 viewBox="0 0 117.3 36" style="enable-background:new 0 0 117.3 36;" xml:space="preserve">
<style type="text/css">
	.st0{fill:#222222;}
	.st1{fill:#6496C4;}
</style>
<g>
	<path class="st0" d="M43.3,17.2h2v10.5h-2v-1.2c-1,0.8-2.2,1.5-3.5,1.5c-1.5,0-2.9-0.6-3.9-1.6c-1-1.1-1.6-2.4-1.6-3.9
		s0.6-2.9,1.6-3.9c1.1-1,2.4-1.6,3.9-1.6c1.3,0,2.6,0.6,3.5,1.4V17.2z M43.3,22.5c0-2-1.6-3.6-3.5-3.6s-3.5,1.6-3.5,3.6
		c0,2,1.6,3.6,3.5,3.6S43.3,24.4,43.3,22.5z"/>
	<path class="st0" d="M50.1,18.3c0.7-0.7,2.6-1.3,3.8-1.3l-0.5,2c-1.8,0-3.4,1.4-3.4,3.2v5.6h-2V17.2h2V18.3z"/>
	<path class="st0" d="M64.6,25.7c-0.2,0.2-0.4,0.5-0.6,0.7c-1,1-2.4,1.6-3.9,1.6s-2.9-0.6-3.9-1.6c-1-1.1-1.6-2.4-1.6-3.9
		s0.6-2.9,1.6-3.9c1-1,2.4-1.6,3.9-1.6s2.9,0.6,3.9,1.6c0.2,0.2,0.4,0.4,0.6,0.6L63,20.4c-0.6-0.9-1.7-1.5-2.9-1.5
		c-2,0-3.5,1.6-3.5,3.6c0,2,1.6,3.6,3.5,3.6c1.2,0,2.2-0.6,2.9-1.5L64.6,25.7z"/>
	<path class="st0" d="M76.6,22.1v5.7h-2v-5.7c0-1.7-1.4-3.2-3.1-3.2c-1.7,0-3.1,1.4-3.1,3.2v5.7h-2V10.8h2v7.4
		c0.9-0.7,2-1.2,3.1-1.2c1.4,0,2.6,0.5,3.6,1.5C76.1,19.4,76.6,20.7,76.6,22.1z"/>
	<path class="st0" d="M79.2,14.2c0-0.7,0.6-1.3,1.3-1.3c0.7,0,1.3,0.6,1.3,1.3s-0.6,1.3-1.3,1.3C79.7,15.5,79.2,14.9,79.2,14.2z
		 M79.5,17.2h2v10.5h-2V17.2z"/>
	<path class="st0" d="M85.6,24.2v-5.2h-1.6v-1.9h1.6v-4.1h2v4.1h3.2v1.9h-3.2v5.1c0,0.9,0.7,1.7,1.6,1.7h1.8l0.5,1.9h-2.3
		C87.2,27.7,85.6,26.2,85.6,24.2z"/>
	<path class="st0" d="M95.2,26.4c0,0.7-0.6,1.3-1.3,1.3c-0.7,0-1.3-0.6-1.3-1.3s0.6-1.3,1.3-1.3C94.6,25.1,95.2,25.7,95.2,26.4z"/>
	<path class="st0" d="M97.4,23.2v-6h2v6c0,1.5,1.3,2.8,2.9,2.8c1.6,0,2.9-1.3,2.9-2.8v-6h2v6c0,1.3-0.5,2.5-1.4,3.4
		c-0.9,0.9-2.1,1.4-3.4,1.4c-1.3,0-2.5-0.5-3.5-1.4C97.9,25.7,97.4,24.5,97.4,23.2z"/>
	<path class="st0" d="M117.3,24.6c0,0.6-0.2,1.2-0.5,1.7c-0.3,0.5-0.8,0.9-1.4,1.2c-0.6,0.3-1.2,0.4-1.9,0.4c-0.4,0-0.7,0-1.1-0.1
		c-1.2-0.2-2.2-0.7-3.2-1.5l1.2-1.4c1.2,1,2.3,1.2,2.9,1.2c0.4,0,0.9-0.1,1.2-0.3c0.3-0.1,0.8-0.5,0.8-1.2s-0.6-1.2-2-1.4
		c-0.1,0-1.8-0.3-2.5-0.7c-1-0.6-1.5-1.4-1.5-2.5c0-0.6,0.2-1.1,0.5-1.6c0.3-0.4,0.7-0.7,1.3-1c0.6-0.3,1.2-0.4,1.8-0.4
		c0.3,0,0.5,0,0.8,0c1,0.2,2,0.6,2.8,1.3l-1.2,1.3c-1-0.8-1.9-0.9-2.4-0.9c-0.4,0-0.8,0.1-1.1,0.2c-0.5,0.2-0.8,0.6-0.8,1.1
		c0,0.7,0.6,1.1,2,1.4c0,0,1.9,0.4,2.4,0.7c0.6,0.3,0.9,0.6,1.1,0.9C117.1,23.5,117.3,24,117.3,24.6z"/>
</g>
<g>
	<g>
		<path class="st1" d="M26.6,23.3H23l-4.6-10.8c0.2-0.6,0.4-1.2,0.4-1.9c0-2.3-1.6-4.3-3.8-4.8V1.2C15,0.5,14.5,0,13.8,0
			c-0.7,0-1.2,0.5-1.2,1.2v4.7c-2.2,0.5-3.8,2.5-3.8,4.8c0,0.7,0.1,1.3,0.4,1.9L4.6,23.3H1.2c-0.7,0-1.2,0.5-1.2,1.2
			s0.5,1.2,1.2,1.2h2.4l-1.1,2.4c-0.4,0.8,0,1.8,0.8,2.2C3.1,31.2,3,32.2,3,33.2c0,1,0.1,1.9,0.4,2.8l5.4-12.2l3.7-8.4
			c0.6,0.3,1.9,0.4,2.5,0.1l3.7,8.5l5.2,11.7c0.2-0.8,0.3-1.6,0.3-2.5c0-1.1-0.2-2.1-0.4-3c1-0.3,1.6-1.4,1.2-2.3L24,25.7h2.6
			c0.7,0,1.2-0.5,1.2-1.2S27.2,23.3,26.6,23.3z M13.8,13.3c-1.4,0-2.6-1.2-2.6-2.6c0-1.4,1.2-2.6,2.6-2.6s2.6,1.2,2.6,2.6
			C16.4,12.1,15.3,13.3,13.8,13.3z"/>
		<polygon class="st1" points="17.9,25.7 16.8,23.3 10.5,23.3 9.5,25.7 		"/>
	</g>
</g>
</svg>
