<?xml version="1.0" encoding="utf-8"?>
<svg version="1.1" id="Layer_1" xmlns="http://www.w3.org/2000/svg" xmlns:xlink="http://www.w3.org/1999/xlink" x="0px" y="0px"
	 viewBox="0 0 78.9 17.1" style="enable-background:new 0 0 78.9 17.1;" xml:space="preserve">
<path d="M9.1,6.4h2v10.5h-2v-1.2c-1,0.8-2.2,1.5-3.5,1.5c-1.5,0-2.9-0.6-3.9-1.6c-1-1.1-1.6-2.4-1.6-3.9s0.6-2.9,1.6-3.9
	c1.1-1,2.4-1.6,3.9-1.6c1.3,0,2.6,0.6,3.5,1.4V6.4z M9.1,11.6c0-2-1.6-3.6-3.5-3.6S2,9.7,2,11.6c0,2,1.6,3.6,3.5,3.6
	S9.1,13.6,9.1,11.6z"/>
<path d="M15.9,7.4c0.7-0.7,2.6-1.3,3.8-1.3l-0.5,2c-1.8,0-3.4,1.4-3.4,3.2v5.6h-2V6.4h2V7.4z"/>
<path d="M30.5,14.9c-0.2,0.2-0.4,0.5-0.6,0.7c-1,1-2.4,1.6-3.9,1.6s-2.9-0.6-3.9-1.6c-1-1.1-1.6-2.4-1.6-3.9s0.6-2.9,1.6-3.9
	c1-1,2.4-1.6,3.9-1.6s2.9,0.6,3.9,1.6c0.2,0.2,0.4,0.4,0.6,0.6l-1.6,1.2c-0.6-0.9-1.7-1.5-2.9-1.5c-2,0-3.5,1.6-3.5,3.6
	c0,2,1.6,3.6,3.5,3.6c1.2,0,2.2-0.6,2.9-1.5L30.5,14.9z"/>
<path d="M42.4,11.2v5.7h-2v-5.7c0-1.7-1.4-3.2-3.1-3.2c-1.7,0-3.1,1.4-3.1,3.2v5.7h-2V0h2v7.4c0.9-0.7,2-1.2,3.1-1.2
	c1.4,0,2.6,0.5,3.6,1.5C41.9,8.6,42.4,9.8,42.4,11.2z"/>
<path d="M45,3.3C45,2.6,45.5,2,46.3,2c0.7,0,1.3,0.6,1.3,1.3S47,4.6,46.3,4.6C45.5,4.6,45,4,45,3.3z M45.3,6.4h2v10.5h-2V6.4z"/>
<path d="M51.4,13.4V8.2h-1.6V6.4h1.6V2.3h2v4.1h3.2v1.9h-3.2v5.1c0,0.9,0.7,1.7,1.6,1.7h1.8l0.5,1.9h-2.3
	C53,16.9,51.4,15.3,51.4,13.4z"/>
<path d="M59,12.4v-6h2v6c0,1.5,1.3,2.8,2.9,2.8c1.6,0,2.9-1.3,2.9-2.8v-6h2v6c0,1.3-0.5,2.5-1.4,3.4c-0.9,0.9-2.1,1.4-3.4,1.4
	c-1.3,0-2.5-0.5-3.5-1.4C59.5,14.9,59,13.7,59,12.4z"/>
<path d="M78.9,13.8c0,0.6-0.2,1.2-0.5,1.7c-0.3,0.5-0.8,0.9-1.4,1.2c-0.6,0.3-1.2,0.4-1.9,0.4c-0.4,0-0.7,0-1.1-0.1
	c-1.2-0.2-2.2-0.7-3.2-1.5l1.2-1.4c1.2,1,2.3,1.2,2.9,1.2c0.4,0,0.9-0.1,1.2-0.3c0.3-0.1,0.8-0.5,0.8-1.2s-0.6-1.2-2-1.4
	c-0.1,0-1.8-0.3-2.5-0.7c-1-0.6-1.5-1.4-1.5-2.5c0-0.6,0.2-1.1,0.5-1.6c0.3-0.4,0.7-0.7,1.3-1c0.6-0.3,1.2-0.4,1.8-0.4
	c0.3,0,0.5,0,0.8,0c1,0.2,2,0.6,2.8,1.3l-1.2,1.3c-1-0.8-1.9-0.9-2.4-0.9c-0.4,0-0.8,0.1-1.1,0.2c-0.5,0.2-0.8,0.6-0.8,1.1
	c0,0.7,0.6,1.1,2,1.4c0,0,1.9,0.4,2.4,0.7c0.6,0.3,0.9,0.6,1.1,0.9C78.7,12.6,78.9,13.2,78.9,13.8z"/>
</svg>
