<?xml version="1.0" encoding="utf-8"?>
<svg version="1.1" xmlns="http://www.w3.org/2000/svg" xmlns:xlink="http://www.w3.org/1999/xlink" x="0px" y="0px"
	 viewBox="0 0 26 26" style="enable-background:new 0 0 26 26;" xml:space="preserve">
<path class="op6 str" d="M6,3c0,1.1-0.9,2-2,2S2,4.1,2,3s0.9-2,2-2"/>
<path class="str" d="M4,1c1.1,0,2,0.9,2,2"/>
<path class="str" d="M20,3c0-1.1-0.9-2-2-2"/>
<path class="str" d="M6,23c0,1.1,0.9,2,2,2s2-0.9,2-2h14c0,1.1-0.9,2-2,2"/>
<line class="str" x1="6" y1="23" x2="6" y2="3"/>
<path class="str" d="M18,1H4C3.4,1,2.9,1.3,2.9,1.3"/>
<line class="str" x1="20" y1="3" x2="20" y2="23"/>
<line class="str" x1="8" y1="25" x2="22" y2="25"/>
<rect x="10" y="5" class="str" width="6" height="4"/>
<polygon class="fil" points="11,11 12.1,8.8 13.3,9.2 	"/>
<line class="op6 str str_rou" x1="10" y1="13" x2="16" y2="13"/>
<line class="op6 str str_rou" x1="10" y1="15" x2="16" y2="15"/>
<line class="op6 str str_rou" x1="10" y1="17" x2="16" y2="17"/>
<line class="str str_rou" x1="10" y1="19" x2="16" y2="19"/>
</svg>
