<?xml version="1.0" encoding="utf-8"?>
<svg version="1.1" id="Layer_1" xmlns="http://www.w3.org/2000/svg" xmlns:xlink="http://www.w3.org/1999/xlink" x="0px" y="0px"
	 viewBox="0 0 24 22" style="enable-background:new 0 0 24 22;" xml:space="preserve">
<path style="fill: white; opacity: 0.2" d="M21.9,9.3C21.9,9.9,22,10.4,22,11c0,6.1-4.9,11-11,11S0,17.1,0,11S4.9,0,11,0c2.3,0,4.5,0.7,6.3,2l-1.4,1.5
	C14.5,2.5,12.8,2,11,2c-5,0-9,4-9,9s4,9,9,9c4.9,0,8.9-3.9,9-8.8C20,11.2,21.9,9.3,21.9,9.3z M20.9,1.2l-9.4,9.6L7.7,7.2l-3.1,3.1
	l6.9,6.7L24,4.3C24,4.3,20.9,1.2,20.9,1.2z"/>
</svg>
