<svg xmlns="http://www.w3.org/2000/svg" viewBox="0 0 400 400" stroke="currentColor" fill="currentColor" stroke-width="0" height="1em" width="1em">
  <g>
    <path d="m356.7 250.2c-2.9-1.7-6-2.9-9.2-3.7v-93c3.2-0.8 6.3-2 9.3-3.7 16.7-9.7 22.4-31 12.8-47.7-9.7-16.7-31-22.4-47.7-12.8-3 1.7-5.6 3.9-7.9 6.3l-80.5-46.5c0.9-3.2 1.4-6.5 1.4-10 0-19.3-15.6-34.9-34.9-34.9s-34.9 15.6-34.9 34.9c0 3.4 0.5 6.8 1.4 9.9l-80.5 46.5c-2.3-2.4-4.9-4.5-7.9-6.2-16.7-9.6-38.1-3.9-47.7 12.8s-3.9 38.1 12.8 47.7c3 1.7 6.1 2.9 9.3 3.7v93c-3.2 0.8-6.2 2-9.2 3.7-16.7 9.7-22.4 31-12.8 47.7s30.9 22.4 47.7 12.8c3-1.7 5.6-3.8 7.8-6.2l80.5 46.5c-0.9 3.1-1.4 6.4-1.4 9.9 0 19.3 15.6 34.9 34.9 34.9s34.9-15.7 34.9-34.9c0-3.8-0.6-7.5-1.8-11l80-46.2c2.4 2.7 5.3 5.1 8.6 7 16.7 9.6 38.1 3.9 47.7-12.8 9.8-16.7 4.1-38-12.7-47.7zm-262 22c-0.8-3.2-2-6.2-3.7-9.2-1.7-2.9-3.8-5.5-6.1-7.8l105.4-182.6c3.1 0.9 6.3 1.4 9.7 1.4s6.7-0.5 9.7-1.4l105.4 182.6c-2.4 2.2-4.4 4.9-6.1 7.8s-2.9 6-3.7 9.2h-210.6zm211.1-162.2c-2.5 8.8-1.6 18.5 3.3 27s12.9 14.2 21.8 16.4v93.2c-0.5 0.1-0.9 0.2-1.3 0.4l-105.5-182.7 0.9-0.9 80.8 46.6zm-130.9-46.6l1 1-105.4 182.5c-0.5-0.1-0.9-0.3-1.4-0.4v-93.2c8.9-2.2 16.9-7.9 21.8-16.4s5.8-18.3 3.3-27l80.7-46.5zm50.9 274c-6.4-7-15.6-11.4-25.8-11.4-9.9 0-18.8 4.1-25.1 10.7l-80.6-46.5c0.1-0.4 0.2-0.9 0.4-1.3h210.7c0.2 0.8 0.4 1.5 0.6 2.3l-80.2 46.2z" />
  </g>
</svg>
